<svg width="48" height="48" viewBox="0 0 48 48" fill="none" xmlns="http://www.w3.org/2000/svg">
<path d="M9.06256 5.58707C9.27112 4.56668 10.7291 4.56668 10.9376 5.58708C11.3983 7.84073 13.1595 9.60193 15.4131 10.0626C16.4335 10.2711 16.4335 11.7291 15.4131 11.9376C13.1595 12.3983 11.3983 14.1595 10.9376 16.4131C10.7291 17.4335 9.27112 17.4335 9.06256 16.4131C8.60193 14.1595 6.84073 12.3983 4.58708 11.9376C3.56668 11.7291 3.56668 10.2711 4.58707 10.0626C6.84073 9.60193 8.60193 7.84073 9.06256 5.58707Z" fill="#0A0A0A"/>
<path d="M23.0002 42.5072C20.0705 41.868 17.1175 40.5988 14.3833 38.6843C6.84303 33.4046 3.34598 24.8828 5.32312 17.9999M37.6429 16.9999C42.7747 23.2605 43.0003 29.9999 41.0003 32.9999C37.0003 38.9999 29.0003 34.9999 29.0003 34.9999M18.0003 8.23424C22.2459 7.85515 26.9484 8.92522 31.2408 11.4999M19.5878 30.8154C18.6114 30.845 17.812 30.0456 17.8416 29.0692C17.9201 26.4787 18.9842 24.0159 20.8168 22.1833L36.1718 6.82831C37.7339 5.26621 40.2666 5.26621 41.8287 6.82831C43.3908 8.39041 43.3908 10.9231 41.8287 12.4852L26.4736 27.8402C24.6411 29.6728 22.1782 30.7369 19.5878 30.8154Z" stroke="#202124" stroke-width="3" stroke-linecap="round"/>
</svg>
