<svg width="30" height="30" viewBox="0 0 30 30" fill="none" xmlns="http://www.w3.org/2000/svg">
<path d="M10.1414 20.6775C10.358 21.9636 10.7684 22.9912 11.4314 23.7348C12.069 24.4498 13.0554 25.0318 14.6966 25.2349C15.6742 25.3557 16.3805 25.2242 16.8919 25.0525C17.4753 24.8566 17.7258 24.6628 18.2216 24.4175C18.9387 24.0627 19.8109 24.3504 20.1694 25.06C20.5279 25.7696 20.2372 26.6327 19.5201 26.9875C19.3709 27.0613 18.6535 27.496 17.8257 27.774C16.9259 28.0761 15.7768 28.2637 14.3355 28.0854C12.1062 27.8096 10.4307 26.955 9.25395 25.6351C8.10268 24.3438 7.54511 22.7374 7.27783 21.1507L10.1414 20.6775Z" fill="white"/>
<path d="M29.9998 6.63361C29.9998 7.69143 28.9167 8.54896 27.5805 8.54896C26.2443 8.54896 25.1611 7.69143 25.1611 6.63361C25.1611 5.57579 26.2443 4.71826 27.5805 4.71826C28.9167 4.71826 29.9998 5.57579 29.9998 6.63361Z" fill="white"/>
<path d="M3.87097 6.63361C3.87097 7.69143 3.00442 8.54896 1.93548 8.54896C0.866546 8.54896 0 7.69143 0 6.63361C0 5.57579 0.866546 4.71826 1.93548 4.71826C3.00442 4.71826 3.87097 5.57579 3.87097 6.63361Z" fill="white"/>
<path d="M20.0806 10.8585V18.5199H14.5161V15.6469H17.1774V10.8585H20.0806Z" fill="white"/>
</svg>
